<mxfile host="app.diagrams.net" modified="2020-11-08T20:22:47.667Z" agent="5.0 (X11; Linux x86_64) AppleWebKit/537.36 (KHTML, like Gecko) Chrome/88.0.4315.5 Safari/537.36" etag="rfFV76f8dulkHYrKY4C-" version="13.9.2" type="github">
  <diagram id="zn3NlYFR33-cAy8xSXkA" name="Page-1">
    <mxGraphModel dx="880" dy="980" grid="1" gridSize="10" guides="1" tooltips="1" connect="1" arrows="1" fold="1" page="1" pageScale="1" pageWidth="827" pageHeight="1169" math="0" shadow="0">
      <root>
        <mxCell id="0" />
        <mxCell id="1" parent="0" />
        <mxCell id="cgR5DXy2LmxDQuLpnnI5-10" style="edgeStyle=orthogonalEdgeStyle;rounded=0;orthogonalLoop=1;jettySize=auto;html=1;" edge="1" parent="1" source="cgR5DXy2LmxDQuLpnnI5-1" target="cgR5DXy2LmxDQuLpnnI5-5">
          <mxGeometry relative="1" as="geometry" />
        </mxCell>
        <mxCell id="cgR5DXy2LmxDQuLpnnI5-14" style="edgeStyle=orthogonalEdgeStyle;rounded=0;orthogonalLoop=1;jettySize=auto;html=1;" edge="1" parent="1" source="cgR5DXy2LmxDQuLpnnI5-1" target="cgR5DXy2LmxDQuLpnnI5-2">
          <mxGeometry relative="1" as="geometry" />
        </mxCell>
        <mxCell id="cgR5DXy2LmxDQuLpnnI5-1" value="Incoming&lt;br&gt;Contentful&lt;br&gt;Exports" style="outlineConnect=0;fontColor=#232F3E;gradientColor=none;fillColor=#277116;strokeColor=none;dashed=0;verticalLabelPosition=bottom;verticalAlign=top;align=center;html=1;fontSize=12;fontStyle=0;aspect=fixed;pointerEvents=1;shape=mxgraph.aws4.bucket;" vertex="1" parent="1">
          <mxGeometry x="100" y="160" width="75" height="78" as="geometry" />
        </mxCell>
        <mxCell id="cgR5DXy2LmxDQuLpnnI5-15" style="edgeStyle=orthogonalEdgeStyle;rounded=0;orthogonalLoop=1;jettySize=auto;html=1;" edge="1" parent="1" source="cgR5DXy2LmxDQuLpnnI5-2" target="cgR5DXy2LmxDQuLpnnI5-6">
          <mxGeometry relative="1" as="geometry" />
        </mxCell>
        <mxCell id="cgR5DXy2LmxDQuLpnnI5-2" value="Bucket lifecyle sends&lt;br&gt;the imports off to&lt;br&gt;slow storage for&lt;br&gt;space defined time&lt;br&gt;" style="outlineConnect=0;fontColor=#232F3E;gradientColor=none;fillColor=#277116;strokeColor=none;dashed=0;verticalLabelPosition=bottom;verticalAlign=top;align=center;html=1;fontSize=12;fontStyle=0;aspect=fixed;pointerEvents=1;shape=mxgraph.aws4.vault;" vertex="1" parent="1">
          <mxGeometry x="106.5" y="410" width="62" height="78" as="geometry" />
        </mxCell>
        <mxCell id="cgR5DXy2LmxDQuLpnnI5-12" style="edgeStyle=orthogonalEdgeStyle;rounded=0;orthogonalLoop=1;jettySize=auto;html=1;" edge="1" parent="1" source="cgR5DXy2LmxDQuLpnnI5-3" target="cgR5DXy2LmxDQuLpnnI5-8">
          <mxGeometry relative="1" as="geometry" />
        </mxCell>
        <mxCell id="cgR5DXy2LmxDQuLpnnI5-17" style="edgeStyle=orthogonalEdgeStyle;rounded=0;orthogonalLoop=1;jettySize=auto;html=1;startArrow=classic;startFill=1;" edge="1" parent="1" source="cgR5DXy2LmxDQuLpnnI5-3" target="cgR5DXy2LmxDQuLpnnI5-9">
          <mxGeometry relative="1" as="geometry" />
        </mxCell>
        <mxCell id="cgR5DXy2LmxDQuLpnnI5-3" value="Individual&lt;br&gt;objects&lt;br&gt;stored under&lt;br&gt;space" style="outlineConnect=0;fontColor=#232F3E;gradientColor=none;fillColor=#277116;strokeColor=none;dashed=0;verticalLabelPosition=bottom;verticalAlign=middle;align=center;html=1;fontSize=12;fontStyle=0;aspect=fixed;pointerEvents=1;shape=mxgraph.aws4.bucket_with_objects;horizontal=1;" vertex="1" parent="1">
          <mxGeometry x="400" y="160" width="75" height="78" as="geometry" />
        </mxCell>
        <mxCell id="cgR5DXy2LmxDQuLpnnI5-11" style="edgeStyle=orthogonalEdgeStyle;rounded=0;orthogonalLoop=1;jettySize=auto;html=1;" edge="1" parent="1" source="cgR5DXy2LmxDQuLpnnI5-5" target="cgR5DXy2LmxDQuLpnnI5-3">
          <mxGeometry relative="1" as="geometry" />
        </mxCell>
        <mxCell id="cgR5DXy2LmxDQuLpnnI5-5" value="Execution&lt;br&gt;environment&lt;br&gt;that can run&lt;br&gt;past 15 minutes" style="outlineConnect=0;fontColor=#232F3E;gradientColor=#F78E04;gradientDirection=north;fillColor=#D05C17;strokeColor=#ffffff;dashed=0;verticalLabelPosition=bottom;verticalAlign=top;align=center;html=1;fontSize=12;fontStyle=0;aspect=fixed;shape=mxgraph.aws4.resourceIcon;resIcon=mxgraph.aws4.fargate;" vertex="1" parent="1">
          <mxGeometry x="240" y="160" width="78" height="78" as="geometry" />
        </mxCell>
        <mxCell id="cgR5DXy2LmxDQuLpnnI5-6" value="Bucket lifecycle&lt;br&gt;sends data&lt;br&gt;to glacier&lt;br&gt;with a delete&lt;br&gt;date" style="outlineConnect=0;fontColor=#232F3E;gradientColor=none;fillColor=#277116;strokeColor=none;dashed=0;verticalLabelPosition=bottom;verticalAlign=top;align=center;html=1;fontSize=12;fontStyle=0;aspect=fixed;pointerEvents=1;shape=mxgraph.aws4.glacier_deep_archive;" vertex="1" parent="1">
          <mxGeometry x="100" y="620" width="75" height="78" as="geometry" />
        </mxCell>
        <mxCell id="cgR5DXy2LmxDQuLpnnI5-7" value="Records in&lt;br&gt;DynamoDB&lt;br&gt;allow for easily&lt;br&gt;requesting parts&lt;br&gt;of the object&lt;br&gt;as well as&lt;br&gt;hydrated objects" style="outlineConnect=0;dashed=0;verticalLabelPosition=bottom;verticalAlign=top;align=center;html=1;shape=mxgraph.aws3.dynamo_db;fillColor=#2E73B8;gradientColor=none;" vertex="1" parent="1">
          <mxGeometry x="720" y="158.43" width="72" height="81" as="geometry" />
        </mxCell>
        <mxCell id="cgR5DXy2LmxDQuLpnnI5-13" style="edgeStyle=orthogonalEdgeStyle;rounded=0;orthogonalLoop=1;jettySize=auto;html=1;entryX=0;entryY=0.5;entryDx=0;entryDy=0;entryPerimeter=0;" edge="1" parent="1" source="cgR5DXy2LmxDQuLpnnI5-8" target="cgR5DXy2LmxDQuLpnnI5-7">
          <mxGeometry relative="1" as="geometry" />
        </mxCell>
        <mxCell id="cgR5DXy2LmxDQuLpnnI5-8" value="Lambda&lt;br&gt;triggered by S3 write&lt;br&gt;formats data for&lt;br&gt;DDB and writes&lt;br&gt;the data" style="outlineConnect=0;fontColor=#232F3E;gradientColor=none;fillColor=#D05C17;strokeColor=none;dashed=0;verticalLabelPosition=bottom;verticalAlign=top;align=center;html=1;fontSize=12;fontStyle=0;aspect=fixed;pointerEvents=1;shape=mxgraph.aws4.lambda_function;" vertex="1" parent="1">
          <mxGeometry x="560" y="159.93" width="78" height="78" as="geometry" />
        </mxCell>
        <mxCell id="cgR5DXy2LmxDQuLpnnI5-9" value="Codebase provides&lt;br&gt;versioned history of&lt;br&gt;changes externally&lt;br&gt;and ability to restore" style="outlineConnect=0;dashed=0;verticalLabelPosition=bottom;verticalAlign=top;align=center;html=1;shape=mxgraph.aws3.codecommit;fillColor=#759C3E;gradientColor=#ffffff;" vertex="1" parent="1">
          <mxGeometry x="399.25" y="385" width="76.5" height="93" as="geometry" />
        </mxCell>
      </root>
    </mxGraphModel>
  </diagram>
</mxfile>
